<?xml version="1.0" standalone="no"?>
<!DOCTYPE svg PUBLIC "-//W3C//DTD SVG 20010904//EN"
 "http://www.w3.org/TR/2001/REC-SVG-20010904/DTD/svg10.dtd">
<svg version="1.0" xmlns="http://www.w3.org/2000/svg"
 width="512.000000pt" height="512.000000pt" viewBox="0 0 512.000000 512.000000"
 preserveAspectRatio="xMidYMid meet">
<metadata>
Created by potrace 1.14, written by Peter Selinger 2001-2017
</metadata>
<g transform="translate(0.000000,512.000000) scale(0.100000,-0.100000)"
fill="#000000" stroke="none">
<path d="M2936 4854 c-67 -21 -161 -114 -177 -176 l-12 -44 -480 -127 -480
-126 -44 39 c-138 121 -353 76 -437 -92 -31 -62 -36 -164 -10 -228 l16 -40
-33 -37 c-18 -21 -171 -194 -341 -384 l-310 -347 -41 10 c-49 11 -106 3 -167
-24 -174 -75 -220 -303 -91 -450 43 -49 123 -88 181 -88 l46 0 102 -212 c55
-117 207 -433 336 -702 l235 -489 -26 -50 c-107 -212 79 -455 311 -407 30 6
71 22 91 36 l37 24 466 -199 467 -199 11 -49 c33 -146 139 -236 279 -237 119
-1 219 63 267 172 22 48 26 150 9 194 -10 26 7 46 526 605 294 318 541 584
547 591 10 10 21 9 60 -4 69 -24 170 -15 229 20 173 101 197 320 51 460 l-47
46 11 97 c52 444 103 863 107 889 5 28 10 31 64 42 202 42 299 264 190 434
-54 83 -137 128 -239 128 -76 0 -139 -23 -190 -70 l-42 -39 -552 337 -553 337
5 71 c4 61 1 80 -20 125 -34 75 -70 114 -133 144 -68 33 -152 41 -219 19z
m-164 -398 c9 -18 30 -49 47 -69 l31 -35 -75 -318 c-42 -176 -85 -360 -97
-410 l-21 -92 -57 -4 c-37 -3 -77 -14 -110 -31 -50 -26 -53 -27 -75 -10 -13
10 -158 137 -323 282 l-300 263 26 50 c18 34 26 68 28 111 l3 61 443 117 c244
65 448 118 454 118 6 1 18 -14 26 -33z m1221 -543 l358 -218 4 -58 c4 -75 43
-155 97 -201 l40 -35 -56 -483 c-32 -266 -60 -497 -62 -514 -5 -27 -11 -31
-55 -40 l-49 -11 -344 681 c-388 768 -659 1307 -665 1319 -1 4 82 -44 185
-107 104 -63 350 -213 547 -333z m-354 -617 c281 -558 511 -1019 511 -1025 0
-6 -5 -11 -11 -11 -26 0 -988 651 -1233 835 l-27 20 16 63 c25 98 0 188 -73
264 l-35 37 57 243 c32 134 76 318 98 410 l39 167 57 4 c31 2 64 4 73 5 13 2
144 -251 528 -1012z m-2161 637 c26 -9 42 -21 42 -31 0 -10 18 -231 40 -492
22 -261 40 -489 40 -506 0 -26 -6 -34 -30 -44 -16 -7 -50 -35 -76 -62 l-47
-51 -86 35 c-47 20 -188 77 -314 128 l-227 92 0 38 c0 46 -16 94 -48 142 l-24
37 83 95 c507 571 575 644 589 639 8 -3 34 -12 58 -20z m542 -282 c297 -262
325 -290 323 -317 -1 -16 -3 -49 -5 -74 -2 -25 0 -63 4 -85 l8 -40 -219 -163
-218 -162 -58 34 c-31 19 -70 38 -86 41 -21 5 -29 12 -29 28 0 12 -18 236 -40
497 -47 554 -46 530 -22 529 9 0 163 -130 342 -288z m526 -681 l41 -12 6 -229
c4 -126 10 -332 14 -457 l6 -228 -35 -21 -36 -21 -290 243 -290 244 15 43 c10
29 13 62 9 100 l-5 56 226 170 227 170 35 -23 c20 -13 54 -29 77 -35z m337
-29 c201 -150 882 -613 1155 -785 33 -20 42 -32 40 -49 -3 -20 -18 -24 -193
-53 -104 -18 -352 -60 -549 -94 -324 -55 -360 -60 -369 -45 -33 60 -117 121
-188 138 l-26 7 -6 197 c-4 109 -10 314 -14 457 l-6 259 24 18 c13 10 28 19
32 19 5 0 50 -31 100 -69z m-1462 -380 c11 -83 70 -165 149 -206 l27 -14 -88
-447 c-49 -245 -90 -448 -91 -449 -13 -10 -73 -24 -78 -18 -4 5 -88 179 -188
388 -100 209 -244 511 -321 670 l-139 290 45 46 46 46 316 -128 316 -128 6
-50z m754 -430 c154 -129 281 -235 282 -236 1 0 -4 -19 -12 -40 -8 -22 -14
-54 -15 -71 0 -30 -9 -36 -367 -234 -203 -112 -372 -205 -376 -207 -4 -3 -24
10 -44 27 -19 17 -46 36 -59 42 -13 6 -24 14 -24 17 0 3 40 206 88 451 l89
445 29 6 c16 3 47 15 69 26 22 12 45 18 50 15 6 -3 136 -112 290 -241z m1948
-194 c2 -6 -238 -273 -534 -593 l-539 -581 -57 29 c-31 15 -64 28 -73 28 -21
0 -20 -10 -61 379 l-32 305 24 15 c80 53 134 127 147 202 l7 43 310 52 c171
29 411 70 535 92 256 46 266 47 273 29z m-1627 -342 c22 -34 100 -84 151 -97
24 -6 43 -16 43 -22 0 -7 16 -156 35 -332 19 -175 35 -324 35 -331 0 -6 -20
-23 -44 -37 -25 -14 -57 -43 -72 -64 l-28 -38 -442 189 -442 190 5 81 c3 44 9
82 12 84 3 1 166 92 361 201 195 110 358 200 362 200 4 1 15 -10 24 -24z"/>
</g>
</svg>
